# xmcd CD database file
#
# Track frame offsets:
#	150
#	14841
#	31105
#	46698
#	62298
#	74934
#	91264
#	105426
#	116756
#	130740
#	143713
#	155542
#	167480
#	181771
#
# Disc length: 2616 seconds
#
# Revision: 0
# Processed by: cddbd v1.5.2PL0 Copyright (c) Steve Scherf et al.
# Submitted via: CDex 1.70beta2
#
DISCID=b20a360e
DTITLE=Artie Shaw - Artie Shaw CD2
DYEAR=1900
DGENRE=Jazz
TTITLE0=Smoke Gets In Your Eyes
TTITLE1=El Rancho Grande
TTITLE2=April In Paris
TTITLE3=Love, Come Back To Me
TTITLE4=Georgia On My Mind
TTITLE5=Star Dust
TTITLE6=Thou Swell
TTITLE7=Nightmare Ver I
TTITLE8=Frenesi
TTITLE9=Cream Puff
TTITLE10=One Song
TTITLE11=Serenade To A Savage
TTITLE12=What Is There To Say
TTITLE13=Softly As In A Morning Sunrise
EXTD=
EXTT0=
EXTT1=
EXTT2=
EXTT3=
EXTT4=
EXTT5=
EXTT6=
EXTT7=
EXTT8=
EXTT9=
EXTT10=
EXTT11=
EXTT12=
EXTT13=
PLAYORDER=
